<mxfile host="app.diagrams.net" agent="Mozilla/5.0 (Windows NT 10.0; Win64; x64) AppleWebKit/537.36 (KHTML, like Gecko) Chrome/131.0.0.0 Safari/537.36" version="25.0.1">
  <diagram name="Page-1" id="DBFOczZi0pU3h_HqHNN_">
    <mxGraphModel dx="822" dy="508" grid="1" gridSize="10" guides="1" tooltips="1" connect="1" arrows="1" fold="1" page="1" pageScale="1" pageWidth="1700" pageHeight="1100" math="0" shadow="0">
      <root>
        <mxCell id="0" />
        <mxCell id="1" parent="0" />
        <mxCell id="J7_f9UvJToc5HEitAdjO-156" value="Phone" style="ellipse;whiteSpace=wrap;html=1;" parent="1" vertex="1">
          <mxGeometry x="1095" y="675" width="80" height="40" as="geometry" />
        </mxCell>
        <mxCell id="J7_f9UvJToc5HEitAdjO-72" value="Phone" style="ellipse;whiteSpace=wrap;html=1;fillStyle=auto;" parent="1" vertex="1">
          <mxGeometry x="505" y="305" width="80" height="40" as="geometry" />
        </mxCell>
        <mxCell id="WPUgw3aDF1IEapU8jd4O-1" value="CITY" style="rounded=0;whiteSpace=wrap;html=1;" parent="1" vertex="1">
          <mxGeometry y="80" width="120" height="40" as="geometry" />
        </mxCell>
        <mxCell id="WPUgw3aDF1IEapU8jd4O-2" value="&lt;u&gt;Cname&lt;/u&gt;" style="ellipse;whiteSpace=wrap;html=1;" parent="1" vertex="1">
          <mxGeometry y="20" width="90" height="30" as="geometry" />
        </mxCell>
        <mxCell id="J7_f9UvJToc5HEitAdjO-13" value="" style="endArrow=none;html=1;rounded=0;exitX=0.5;exitY=0;exitDx=0;exitDy=0;entryX=0.5;entryY=1;entryDx=0;entryDy=0;" parent="1" source="WPUgw3aDF1IEapU8jd4O-1" target="WPUgw3aDF1IEapU8jd4O-2" edge="1">
          <mxGeometry width="50" height="50" relative="1" as="geometry">
            <mxPoint x="10" y="100" as="sourcePoint" />
            <mxPoint x="70" y="60" as="targetPoint" />
          </mxGeometry>
        </mxCell>
        <mxCell id="J7_f9UvJToc5HEitAdjO-14" value="State" style="ellipse;whiteSpace=wrap;html=1;" parent="1" vertex="1">
          <mxGeometry x="100" y="20" width="90" height="30" as="geometry" />
        </mxCell>
        <mxCell id="J7_f9UvJToc5HEitAdjO-15" value="Country" style="ellipse;whiteSpace=wrap;html=1;" parent="1" vertex="1">
          <mxGeometry x="160" y="50" width="90" height="30" as="geometry" />
        </mxCell>
        <mxCell id="J7_f9UvJToc5HEitAdjO-16" value="" style="endArrow=none;html=1;rounded=0;entryX=0.5;entryY=1;entryDx=0;entryDy=0;exitX=0.75;exitY=0;exitDx=0;exitDy=0;" parent="1" source="WPUgw3aDF1IEapU8jd4O-1" target="J7_f9UvJToc5HEitAdjO-14" edge="1">
          <mxGeometry width="50" height="50" relative="1" as="geometry">
            <mxPoint x="70" y="110" as="sourcePoint" />
            <mxPoint x="120" y="60" as="targetPoint" />
          </mxGeometry>
        </mxCell>
        <mxCell id="J7_f9UvJToc5HEitAdjO-17" value="" style="endArrow=none;html=1;rounded=0;entryX=0;entryY=1;entryDx=0;entryDy=0;exitX=1;exitY=0;exitDx=0;exitDy=0;" parent="1" source="WPUgw3aDF1IEapU8jd4O-1" target="J7_f9UvJToc5HEitAdjO-15" edge="1">
          <mxGeometry width="50" height="50" relative="1" as="geometry">
            <mxPoint x="110" y="140" as="sourcePoint" />
            <mxPoint x="160" y="90" as="targetPoint" />
          </mxGeometry>
        </mxCell>
        <mxCell id="J7_f9UvJToc5HEitAdjO-19" value="has" style="rhombus;whiteSpace=wrap;html=1;" parent="1" vertex="1">
          <mxGeometry x="270" y="60" width="80" height="80" as="geometry" />
        </mxCell>
        <mxCell id="J7_f9UvJToc5HEitAdjO-22" value="AIRPORT" style="rounded=0;whiteSpace=wrap;html=1;" parent="1" vertex="1">
          <mxGeometry x="430" y="80" width="120" height="40" as="geometry" />
        </mxCell>
        <mxCell id="J7_f9UvJToc5HEitAdjO-23" value="Country" style="ellipse;whiteSpace=wrap;html=1;" parent="1" vertex="1">
          <mxGeometry x="560" y="30" width="90" height="30" as="geometry" />
        </mxCell>
        <mxCell id="J7_f9UvJToc5HEitAdjO-24" value="State" style="ellipse;whiteSpace=wrap;html=1;" parent="1" vertex="1">
          <mxGeometry x="460" width="90" height="30" as="geometry" />
        </mxCell>
        <mxCell id="J7_f9UvJToc5HEitAdjO-25" value="&lt;u&gt;APname&lt;/u&gt;" style="ellipse;whiteSpace=wrap;html=1;" parent="1" vertex="1">
          <mxGeometry x="360" y="20" width="90" height="30" as="geometry" />
        </mxCell>
        <mxCell id="J7_f9UvJToc5HEitAdjO-26" value="" style="endArrow=none;html=1;rounded=0;entryX=0.5;entryY=1;entryDx=0;entryDy=0;exitX=0.25;exitY=0;exitDx=0;exitDy=0;" parent="1" source="J7_f9UvJToc5HEitAdjO-22" target="J7_f9UvJToc5HEitAdjO-25" edge="1">
          <mxGeometry width="50" height="50" relative="1" as="geometry">
            <mxPoint x="440" y="100" as="sourcePoint" />
            <mxPoint x="490" y="50" as="targetPoint" />
          </mxGeometry>
        </mxCell>
        <mxCell id="J7_f9UvJToc5HEitAdjO-27" value="" style="endArrow=none;html=1;rounded=0;entryX=0;entryY=1;entryDx=0;entryDy=0;exitX=0.75;exitY=0;exitDx=0;exitDy=0;" parent="1" source="J7_f9UvJToc5HEitAdjO-22" target="J7_f9UvJToc5HEitAdjO-23" edge="1">
          <mxGeometry width="50" height="50" relative="1" as="geometry">
            <mxPoint x="560" y="80" as="sourcePoint" />
            <mxPoint x="505" y="50" as="targetPoint" />
          </mxGeometry>
        </mxCell>
        <mxCell id="J7_f9UvJToc5HEitAdjO-28" value="" style="endArrow=none;html=1;rounded=0;entryX=0.5;entryY=1;entryDx=0;entryDy=0;exitX=0.5;exitY=0;exitDx=0;exitDy=0;" parent="1" source="J7_f9UvJToc5HEitAdjO-22" target="J7_f9UvJToc5HEitAdjO-24" edge="1">
          <mxGeometry width="50" height="50" relative="1" as="geometry">
            <mxPoint x="532.5" y="70" as="sourcePoint" />
            <mxPoint x="477.5" y="40" as="targetPoint" />
          </mxGeometry>
        </mxCell>
        <mxCell id="J7_f9UvJToc5HEitAdjO-29" value="" style="endArrow=none;html=1;rounded=0;exitX=1;exitY=0.5;exitDx=0;exitDy=0;entryX=0;entryY=0.5;entryDx=0;entryDy=0;" parent="1" source="J7_f9UvJToc5HEitAdjO-22" target="J7_f9UvJToc5HEitAdjO-31" edge="1">
          <mxGeometry width="50" height="50" relative="1" as="geometry">
            <mxPoint x="570" y="99.5" as="sourcePoint" />
            <mxPoint x="670" y="110" as="targetPoint" />
          </mxGeometry>
        </mxCell>
        <mxCell id="J7_f9UvJToc5HEitAdjO-31" value="contains" style="rhombus;whiteSpace=wrap;html=1;" parent="1" vertex="1">
          <mxGeometry x="680" y="60" width="80" height="80" as="geometry" />
        </mxCell>
        <mxCell id="J7_f9UvJToc5HEitAdjO-34" value="AIRLINE" style="rounded=0;whiteSpace=wrap;html=1;" parent="1" vertex="1">
          <mxGeometry x="940" y="80" width="120" height="40" as="geometry" />
        </mxCell>
        <mxCell id="J7_f9UvJToc5HEitAdjO-35" value="Code" style="ellipse;whiteSpace=wrap;html=1;" parent="1" vertex="1">
          <mxGeometry x="1070" y="30" width="90" height="30" as="geometry" />
        </mxCell>
        <mxCell id="J7_f9UvJToc5HEitAdjO-36" value="ALname" style="ellipse;whiteSpace=wrap;html=1;" parent="1" vertex="1">
          <mxGeometry x="955" y="10" width="90" height="30" as="geometry" />
        </mxCell>
        <mxCell id="J7_f9UvJToc5HEitAdjO-37" value="&lt;u&gt;AirlineID&lt;/u&gt;" style="ellipse;whiteSpace=wrap;html=1;" parent="1" vertex="1">
          <mxGeometry x="850" y="20" width="90" height="30" as="geometry" />
        </mxCell>
        <mxCell id="J7_f9UvJToc5HEitAdjO-38" value="" style="endArrow=none;html=1;rounded=0;entryX=0.5;entryY=1;entryDx=0;entryDy=0;exitX=0.25;exitY=0;exitDx=0;exitDy=0;" parent="1" source="J7_f9UvJToc5HEitAdjO-34" target="J7_f9UvJToc5HEitAdjO-37" edge="1">
          <mxGeometry width="50" height="50" relative="1" as="geometry">
            <mxPoint x="860" y="110" as="sourcePoint" />
            <mxPoint x="910" y="60" as="targetPoint" />
          </mxGeometry>
        </mxCell>
        <mxCell id="J7_f9UvJToc5HEitAdjO-39" value="" style="endArrow=none;html=1;rounded=0;entryX=0.5;entryY=1;entryDx=0;entryDy=0;exitX=0.5;exitY=0;exitDx=0;exitDy=0;" parent="1" source="J7_f9UvJToc5HEitAdjO-34" target="J7_f9UvJToc5HEitAdjO-36" edge="1">
          <mxGeometry width="50" height="50" relative="1" as="geometry">
            <mxPoint x="890" y="100" as="sourcePoint" />
            <mxPoint x="940" y="50" as="targetPoint" />
          </mxGeometry>
        </mxCell>
        <mxCell id="J7_f9UvJToc5HEitAdjO-40" value="" style="endArrow=none;html=1;rounded=0;entryX=0;entryY=1;entryDx=0;entryDy=0;exitX=0.75;exitY=0;exitDx=0;exitDy=0;" parent="1" source="J7_f9UvJToc5HEitAdjO-34" target="J7_f9UvJToc5HEitAdjO-35" edge="1">
          <mxGeometry width="50" height="50" relative="1" as="geometry">
            <mxPoint x="930" y="70" as="sourcePoint" />
            <mxPoint x="940" y="50" as="targetPoint" />
          </mxGeometry>
        </mxCell>
        <mxCell id="J7_f9UvJToc5HEitAdjO-42" value="has" style="rhombus;whiteSpace=wrap;html=1;" parent="1" vertex="1">
          <mxGeometry x="960" y="200" width="80" height="80" as="geometry" />
        </mxCell>
        <mxCell id="J7_f9UvJToc5HEitAdjO-46" value="has" style="rhombus;whiteSpace=wrap;html=1;" parent="1" vertex="1">
          <mxGeometry x="450" y="200" width="80" height="80" as="geometry" />
        </mxCell>
        <mxCell id="J7_f9UvJToc5HEitAdjO-48" value="" style="endArrow=none;html=1;rounded=0;entryX=0.5;entryY=1;entryDx=0;entryDy=0;exitX=0.5;exitY=0;exitDx=0;exitDy=0;" parent="1" source="J7_f9UvJToc5HEitAdjO-49" target="J7_f9UvJToc5HEitAdjO-46" edge="1">
          <mxGeometry width="50" height="50" relative="1" as="geometry">
            <mxPoint x="490" y="340" as="sourcePoint" />
            <mxPoint x="560" y="340" as="targetPoint" />
          </mxGeometry>
        </mxCell>
        <mxCell id="J7_f9UvJToc5HEitAdjO-49" value="EMPLOYEE" style="rounded=0;whiteSpace=wrap;html=1;" parent="1" vertex="1">
          <mxGeometry x="430" y="360" width="120" height="40" as="geometry" />
        </mxCell>
        <mxCell id="J7_f9UvJToc5HEitAdjO-59" value="Phone_No" style="ellipse;whiteSpace=wrap;html=1;fillStyle=auto;" parent="1" vertex="1">
          <mxGeometry x="510" y="310" width="70" height="30" as="geometry" />
        </mxCell>
        <mxCell id="J7_f9UvJToc5HEitAdjO-60" value="Age" style="ellipse;whiteSpace=wrap;html=1;" parent="1" vertex="1">
          <mxGeometry x="590" y="335" width="70" height="30" as="geometry" />
        </mxCell>
        <mxCell id="J7_f9UvJToc5HEitAdjO-61" value="Salary" style="ellipse;whiteSpace=wrap;html=1;" parent="1" vertex="1">
          <mxGeometry x="590" y="390" width="70" height="30" as="geometry" />
        </mxCell>
        <mxCell id="J7_f9UvJToc5HEitAdjO-62" value="Jobtype" style="ellipse;whiteSpace=wrap;html=1;" parent="1" vertex="1">
          <mxGeometry x="520" y="420" width="70" height="30" as="geometry" />
        </mxCell>
        <mxCell id="J7_f9UvJToc5HEitAdjO-63" value="Address" style="ellipse;whiteSpace=wrap;html=1;" parent="1" vertex="1">
          <mxGeometry x="400" y="420" width="70" height="30" as="geometry" />
        </mxCell>
        <mxCell id="J7_f9UvJToc5HEitAdjO-64" value="Lname" style="ellipse;whiteSpace=wrap;html=1;" parent="1" vertex="1">
          <mxGeometry x="220" y="420" width="70" height="30" as="geometry" />
        </mxCell>
        <mxCell id="J7_f9UvJToc5HEitAdjO-65" value="Fname" style="ellipse;whiteSpace=wrap;html=1;" parent="1" vertex="1">
          <mxGeometry x="220" y="365" width="70" height="30" as="geometry" />
        </mxCell>
        <mxCell id="J7_f9UvJToc5HEitAdjO-66" value="Name" style="ellipse;whiteSpace=wrap;html=1;" parent="1" vertex="1">
          <mxGeometry x="310" y="390" width="70" height="30" as="geometry" />
        </mxCell>
        <mxCell id="J7_f9UvJToc5HEitAdjO-67" value="&lt;u&gt;Eid&lt;/u&gt;" style="ellipse;whiteSpace=wrap;html=1;" parent="1" vertex="1">
          <mxGeometry x="320" y="340" width="70" height="30" as="geometry" />
        </mxCell>
        <mxCell id="J7_f9UvJToc5HEitAdjO-68" value="Sex" style="ellipse;whiteSpace=wrap;html=1;" parent="1" vertex="1">
          <mxGeometry x="410" y="310" width="70" height="30" as="geometry" />
        </mxCell>
        <mxCell id="J7_f9UvJToc5HEitAdjO-69" value="" style="endArrow=none;html=1;rounded=0;entryX=0;entryY=0.5;entryDx=0;entryDy=0;exitX=1;exitY=0;exitDx=0;exitDy=0;" parent="1" source="J7_f9UvJToc5HEitAdjO-49" target="J7_f9UvJToc5HEitAdjO-60" edge="1">
          <mxGeometry width="50" height="50" relative="1" as="geometry">
            <mxPoint x="490" y="400" as="sourcePoint" />
            <mxPoint x="540" y="350" as="targetPoint" />
          </mxGeometry>
        </mxCell>
        <mxCell id="J7_f9UvJToc5HEitAdjO-70" value="" style="endArrow=none;html=1;rounded=0;entryX=0.5;entryY=1;entryDx=0;entryDy=0;exitX=0.75;exitY=0;exitDx=0;exitDy=0;" parent="1" source="J7_f9UvJToc5HEitAdjO-49" target="J7_f9UvJToc5HEitAdjO-72" edge="1">
          <mxGeometry width="50" height="50" relative="1" as="geometry">
            <mxPoint x="460" y="400" as="sourcePoint" />
            <mxPoint x="510" y="350" as="targetPoint" />
          </mxGeometry>
        </mxCell>
        <mxCell id="J7_f9UvJToc5HEitAdjO-73" value="" style="endArrow=none;html=1;rounded=0;entryX=0;entryY=0.5;entryDx=0;entryDy=0;exitX=1;exitY=0.75;exitDx=0;exitDy=0;" parent="1" source="J7_f9UvJToc5HEitAdjO-49" target="J7_f9UvJToc5HEitAdjO-61" edge="1">
          <mxGeometry width="50" height="50" relative="1" as="geometry">
            <mxPoint x="490" y="430" as="sourcePoint" />
            <mxPoint x="540" y="380" as="targetPoint" />
          </mxGeometry>
        </mxCell>
        <mxCell id="J7_f9UvJToc5HEitAdjO-74" value="" style="endArrow=none;html=1;rounded=0;entryX=1;entryY=1;entryDx=0;entryDy=0;exitX=0.5;exitY=0;exitDx=0;exitDy=0;" parent="1" source="J7_f9UvJToc5HEitAdjO-62" target="J7_f9UvJToc5HEitAdjO-49" edge="1">
          <mxGeometry width="50" height="50" relative="1" as="geometry">
            <mxPoint x="450" y="490" as="sourcePoint" />
            <mxPoint x="500" y="440" as="targetPoint" />
          </mxGeometry>
        </mxCell>
        <mxCell id="J7_f9UvJToc5HEitAdjO-75" value="" style="endArrow=none;html=1;rounded=0;exitX=0.5;exitY=0;exitDx=0;exitDy=0;entryX=0.25;entryY=1;entryDx=0;entryDy=0;" parent="1" source="J7_f9UvJToc5HEitAdjO-63" target="J7_f9UvJToc5HEitAdjO-49" edge="1">
          <mxGeometry width="50" height="50" relative="1" as="geometry">
            <mxPoint x="465" y="480" as="sourcePoint" />
            <mxPoint x="515" y="430" as="targetPoint" />
          </mxGeometry>
        </mxCell>
        <mxCell id="J7_f9UvJToc5HEitAdjO-76" value="" style="endArrow=none;html=1;rounded=0;entryX=0;entryY=0.75;entryDx=0;entryDy=0;exitX=1;exitY=0.5;exitDx=0;exitDy=0;" parent="1" source="J7_f9UvJToc5HEitAdjO-66" target="J7_f9UvJToc5HEitAdjO-49" edge="1">
          <mxGeometry width="50" height="50" relative="1" as="geometry">
            <mxPoint x="350" y="460" as="sourcePoint" />
            <mxPoint x="400" y="410" as="targetPoint" />
          </mxGeometry>
        </mxCell>
        <mxCell id="J7_f9UvJToc5HEitAdjO-77" value="" style="endArrow=none;html=1;rounded=0;entryX=0;entryY=0.5;entryDx=0;entryDy=0;exitX=1;exitY=0.5;exitDx=0;exitDy=0;" parent="1" source="J7_f9UvJToc5HEitAdjO-67" target="J7_f9UvJToc5HEitAdjO-49" edge="1">
          <mxGeometry width="50" height="50" relative="1" as="geometry">
            <mxPoint x="360" y="430" as="sourcePoint" />
            <mxPoint x="410" y="380" as="targetPoint" />
          </mxGeometry>
        </mxCell>
        <mxCell id="J7_f9UvJToc5HEitAdjO-78" value="" style="endArrow=none;html=1;rounded=0;entryX=0.5;entryY=1;entryDx=0;entryDy=0;exitX=0.25;exitY=0;exitDx=0;exitDy=0;" parent="1" source="J7_f9UvJToc5HEitAdjO-49" target="J7_f9UvJToc5HEitAdjO-68" edge="1">
          <mxGeometry width="50" height="50" relative="1" as="geometry">
            <mxPoint x="490" y="430" as="sourcePoint" />
            <mxPoint x="540" y="380" as="targetPoint" />
          </mxGeometry>
        </mxCell>
        <mxCell id="J7_f9UvJToc5HEitAdjO-79" value="" style="endArrow=none;html=1;rounded=0;entryX=0;entryY=0.5;entryDx=0;entryDy=0;exitX=0.5;exitY=1;exitDx=0;exitDy=0;" parent="1" source="J7_f9UvJToc5HEitAdjO-65" target="J7_f9UvJToc5HEitAdjO-66" edge="1">
          <mxGeometry width="50" height="50" relative="1" as="geometry">
            <mxPoint x="260" y="490" as="sourcePoint" />
            <mxPoint x="310" y="440" as="targetPoint" />
          </mxGeometry>
        </mxCell>
        <mxCell id="J7_f9UvJToc5HEitAdjO-80" value="" style="endArrow=none;html=1;rounded=0;entryX=0;entryY=0.5;entryDx=0;entryDy=0;exitX=0.5;exitY=0;exitDx=0;exitDy=0;" parent="1" source="J7_f9UvJToc5HEitAdjO-64" target="J7_f9UvJToc5HEitAdjO-66" edge="1">
          <mxGeometry width="50" height="50" relative="1" as="geometry">
            <mxPoint x="265" y="405" as="sourcePoint" />
            <mxPoint x="320" y="415" as="targetPoint" />
          </mxGeometry>
        </mxCell>
        <mxCell id="J7_f9UvJToc5HEitAdjO-82" value="d" style="ellipse;whiteSpace=wrap;html=1;aspect=fixed;" parent="1" vertex="1">
          <mxGeometry x="475" y="480" width="30" height="30" as="geometry" />
        </mxCell>
        <mxCell id="J7_f9UvJToc5HEitAdjO-84" value="" style="endArrow=none;html=1;rounded=0;entryX=0;entryY=0.5;entryDx=0;entryDy=0;exitX=0.5;exitY=0;exitDx=0;exitDy=0;" parent="1" source="J7_f9UvJToc5HEitAdjO-88" target="J7_f9UvJToc5HEitAdjO-82" edge="1">
          <mxGeometry width="50" height="50" relative="1" as="geometry">
            <mxPoint x="440" y="550" as="sourcePoint" />
            <mxPoint x="470" y="520" as="targetPoint" />
          </mxGeometry>
        </mxCell>
        <mxCell id="J7_f9UvJToc5HEitAdjO-85" value="" style="endArrow=none;html=1;rounded=0;entryX=0;entryY=1;entryDx=0;entryDy=0;exitX=0.5;exitY=0;exitDx=0;exitDy=0;" parent="1" source="J7_f9UvJToc5HEitAdjO-89" target="J7_f9UvJToc5HEitAdjO-82" edge="1">
          <mxGeometry width="50" height="50" relative="1" as="geometry">
            <mxPoint x="500" y="550" as="sourcePoint" />
            <mxPoint x="609" y="540" as="targetPoint" />
          </mxGeometry>
        </mxCell>
        <mxCell id="J7_f9UvJToc5HEitAdjO-86" value="" style="endArrow=none;html=1;rounded=0;entryX=0.5;entryY=0;entryDx=0;entryDy=0;exitX=0.5;exitY=1;exitDx=0;exitDy=0;" parent="1" source="J7_f9UvJToc5HEitAdjO-82" target="J7_f9UvJToc5HEitAdjO-91" edge="1">
          <mxGeometry width="50" height="50" relative="1" as="geometry">
            <mxPoint x="501" y="520" as="sourcePoint" />
            <mxPoint x="544" y="510" as="targetPoint" />
          </mxGeometry>
        </mxCell>
        <mxCell id="J7_f9UvJToc5HEitAdjO-87" value="" style="endArrow=none;html=1;rounded=0;entryX=0.5;entryY=0;entryDx=0;entryDy=0;exitX=1;exitY=1;exitDx=0;exitDy=0;" parent="1" source="J7_f9UvJToc5HEitAdjO-82" target="J7_f9UvJToc5HEitAdjO-90" edge="1">
          <mxGeometry width="50" height="50" relative="1" as="geometry">
            <mxPoint x="560" y="544" as="sourcePoint" />
            <mxPoint x="599" y="500" as="targetPoint" />
          </mxGeometry>
        </mxCell>
        <mxCell id="J7_f9UvJToc5HEitAdjO-88" value="Engineer" style="rounded=0;whiteSpace=wrap;html=1;" parent="1" vertex="1">
          <mxGeometry x="280" y="560" width="90" height="30" as="geometry" />
        </mxCell>
        <mxCell id="J7_f9UvJToc5HEitAdjO-89" value="Trafic Monitor" style="rounded=0;whiteSpace=wrap;html=1;" parent="1" vertex="1">
          <mxGeometry x="385" y="560" width="90" height="30" as="geometry" />
        </mxCell>
        <mxCell id="J7_f9UvJToc5HEitAdjO-90" value="Administrative Support" style="rounded=0;whiteSpace=wrap;html=1;" parent="1" vertex="1">
          <mxGeometry x="600" y="560" width="90" height="30" as="geometry" />
        </mxCell>
        <mxCell id="J7_f9UvJToc5HEitAdjO-91" value="Airport Authority" style="rounded=0;whiteSpace=wrap;html=1;" parent="1" vertex="1">
          <mxGeometry x="490" y="560" width="90" height="30" as="geometry" />
        </mxCell>
        <mxCell id="J7_f9UvJToc5HEitAdjO-93" value="" style="verticalLabelPosition=bottom;verticalAlign=top;html=1;shape=mxgraph.basic.arc;startAngle=0.44141016803936806;endAngle=0.06463251336126931;rotation=-45;" parent="1" vertex="1">
          <mxGeometry x="430" y="520" width="50" height="20" as="geometry" />
        </mxCell>
        <mxCell id="J7_f9UvJToc5HEitAdjO-94" value="" style="verticalLabelPosition=bottom;verticalAlign=top;html=1;shape=mxgraph.basic.arc;startAngle=0.44141016803936806;endAngle=0.06463251336126931;rotation=-30;" parent="1" vertex="1">
          <mxGeometry x="390" y="510" width="50" height="20" as="geometry" />
        </mxCell>
        <mxCell id="J7_f9UvJToc5HEitAdjO-95" value="" style="verticalLabelPosition=bottom;verticalAlign=top;html=1;shape=mxgraph.basic.arc;startAngle=0.44141016803936806;endAngle=0.06463251336126931;rotation=-160;" parent="1" vertex="1">
          <mxGeometry x="540" y="520" width="50" height="20" as="geometry" />
        </mxCell>
        <mxCell id="J7_f9UvJToc5HEitAdjO-96" value="" style="verticalLabelPosition=bottom;verticalAlign=top;html=1;shape=mxgraph.basic.arc;startAngle=0.44141016803936806;endAngle=0.06463251336126931;rotation=-140;" parent="1" vertex="1">
          <mxGeometry x="480" y="520" width="50" height="20" as="geometry" />
        </mxCell>
        <mxCell id="J7_f9UvJToc5HEitAdjO-101" value="AStype" style="ellipse;whiteSpace=wrap;html=1;" parent="1" vertex="1">
          <mxGeometry x="610" y="620" width="70" height="30" as="geometry" />
        </mxCell>
        <mxCell id="J7_f9UvJToc5HEitAdjO-102" value="Position" style="ellipse;whiteSpace=wrap;html=1;" parent="1" vertex="1">
          <mxGeometry x="500" y="620" width="70" height="30" as="geometry" />
        </mxCell>
        <mxCell id="J7_f9UvJToc5HEitAdjO-103" value="shift" style="ellipse;whiteSpace=wrap;html=1;" parent="1" vertex="1">
          <mxGeometry x="395" y="620" width="70" height="30" as="geometry" />
        </mxCell>
        <mxCell id="J7_f9UvJToc5HEitAdjO-104" value="Etype" style="ellipse;whiteSpace=wrap;html=1;" parent="1" vertex="1">
          <mxGeometry x="290" y="620" width="70" height="30" as="geometry" />
        </mxCell>
        <mxCell id="J7_f9UvJToc5HEitAdjO-106" value="" style="endArrow=none;html=1;rounded=0;entryX=0.5;entryY=1;entryDx=0;entryDy=0;exitX=0.5;exitY=0;exitDx=0;exitDy=0;" parent="1" source="J7_f9UvJToc5HEitAdjO-104" target="J7_f9UvJToc5HEitAdjO-88" edge="1">
          <mxGeometry width="50" height="50" relative="1" as="geometry">
            <mxPoint x="240" y="660" as="sourcePoint" />
            <mxPoint x="290" y="610" as="targetPoint" />
          </mxGeometry>
        </mxCell>
        <mxCell id="J7_f9UvJToc5HEitAdjO-107" value="" style="endArrow=none;html=1;rounded=0;entryX=0.5;entryY=0;entryDx=0;entryDy=0;exitX=0.5;exitY=1;exitDx=0;exitDy=0;" parent="1" source="J7_f9UvJToc5HEitAdjO-89" target="J7_f9UvJToc5HEitAdjO-103" edge="1">
          <mxGeometry width="50" height="50" relative="1" as="geometry">
            <mxPoint x="510" y="590" as="sourcePoint" />
            <mxPoint x="560" y="540" as="targetPoint" />
          </mxGeometry>
        </mxCell>
        <mxCell id="J7_f9UvJToc5HEitAdjO-108" value="" style="endArrow=none;html=1;rounded=0;entryX=0.5;entryY=1;entryDx=0;entryDy=0;exitX=0.5;exitY=0;exitDx=0;exitDy=0;" parent="1" source="J7_f9UvJToc5HEitAdjO-102" target="J7_f9UvJToc5HEitAdjO-91" edge="1">
          <mxGeometry width="50" height="50" relative="1" as="geometry">
            <mxPoint x="560" y="600" as="sourcePoint" />
            <mxPoint x="610" y="550" as="targetPoint" />
          </mxGeometry>
        </mxCell>
        <mxCell id="J7_f9UvJToc5HEitAdjO-109" value="" style="endArrow=none;html=1;rounded=0;exitX=0.5;exitY=0;exitDx=0;exitDy=0;entryX=0.5;entryY=1;entryDx=0;entryDy=0;" parent="1" source="J7_f9UvJToc5HEitAdjO-101" target="J7_f9UvJToc5HEitAdjO-90" edge="1">
          <mxGeometry width="50" height="50" relative="1" as="geometry">
            <mxPoint x="590" y="610" as="sourcePoint" />
            <mxPoint x="660" y="610" as="targetPoint" />
          </mxGeometry>
        </mxCell>
        <mxCell id="J7_f9UvJToc5HEitAdjO-110" value="" style="endArrow=none;html=1;rounded=0;exitX=1;exitY=0.5;exitDx=0;exitDy=0;" parent="1" source="J7_f9UvJToc5HEitAdjO-49" edge="1">
          <mxGeometry width="50" height="50" relative="1" as="geometry">
            <mxPoint x="700" y="415" as="sourcePoint" />
            <mxPoint x="780" y="380" as="targetPoint" />
          </mxGeometry>
        </mxCell>
        <mxCell id="J7_f9UvJToc5HEitAdjO-111" value="" style="endArrow=none;html=1;rounded=0;exitX=0.5;exitY=0;exitDx=0;exitDy=0;" parent="1" source="J7_f9UvJToc5HEitAdjO-112" edge="1">
          <mxGeometry width="50" height="50" relative="1" as="geometry">
            <mxPoint x="820" y="490" as="sourcePoint" />
            <mxPoint x="780" y="380" as="targetPoint" />
          </mxGeometry>
        </mxCell>
        <mxCell id="J7_f9UvJToc5HEitAdjO-112" value="serves" style="rhombus;whiteSpace=wrap;html=1;" parent="1" vertex="1">
          <mxGeometry x="740" y="480" width="80" height="80" as="geometry" />
        </mxCell>
        <mxCell id="J7_f9UvJToc5HEitAdjO-113" value="" style="endArrow=none;html=1;rounded=0;entryX=0.5;entryY=1;entryDx=0;entryDy=0;" parent="1" target="J7_f9UvJToc5HEitAdjO-112" edge="1">
          <mxGeometry width="50" height="50" relative="1" as="geometry">
            <mxPoint x="780" y="660" as="sourcePoint" />
            <mxPoint x="860" y="610" as="targetPoint" />
          </mxGeometry>
        </mxCell>
        <mxCell id="J7_f9UvJToc5HEitAdjO-114" value="" style="endArrow=none;html=1;rounded=0;entryX=0;entryY=0.5;entryDx=0;entryDy=0;" parent="1" target="J7_f9UvJToc5HEitAdjO-137" edge="1">
          <mxGeometry width="50" height="50" relative="1" as="geometry">
            <mxPoint x="780" y="659.41" as="sourcePoint" />
            <mxPoint x="860" y="659.41" as="targetPoint" />
          </mxGeometry>
        </mxCell>
        <mxCell id="J7_f9UvJToc5HEitAdjO-116" value="FLIGHT" style="rounded=0;whiteSpace=wrap;html=1;" parent="1" vertex="1">
          <mxGeometry x="940" y="360" width="120" height="40" as="geometry" />
        </mxCell>
        <mxCell id="J7_f9UvJToc5HEitAdjO-117" value="&lt;u&gt;Flight_Code&lt;/u&gt;" style="ellipse;whiteSpace=wrap;html=1;" parent="1" vertex="1">
          <mxGeometry x="880" y="300" width="80" height="30" as="geometry" />
        </mxCell>
        <mxCell id="J7_f9UvJToc5HEitAdjO-118" value="Flight type" style="ellipse;whiteSpace=wrap;html=1;" parent="1" vertex="1">
          <mxGeometry x="830" y="340" width="70" height="30" as="geometry" />
        </mxCell>
        <mxCell id="J7_f9UvJToc5HEitAdjO-119" value="Duration" style="ellipse;whiteSpace=wrap;html=1;" parent="1" vertex="1">
          <mxGeometry x="830" y="390" width="70" height="30" as="geometry" />
        </mxCell>
        <mxCell id="J7_f9UvJToc5HEitAdjO-120" value="Status" style="ellipse;whiteSpace=wrap;html=1;" parent="1" vertex="1">
          <mxGeometry x="910" y="425" width="70" height="30" as="geometry" />
        </mxCell>
        <mxCell id="J7_f9UvJToc5HEitAdjO-122" value="Arrival" style="ellipse;whiteSpace=wrap;html=1;" parent="1" vertex="1">
          <mxGeometry x="1020" y="300" width="70" height="30" as="geometry" />
        </mxCell>
        <mxCell id="J7_f9UvJToc5HEitAdjO-123" value="Destination" style="ellipse;whiteSpace=wrap;html=1;" parent="1" vertex="1">
          <mxGeometry x="1090" y="330" width="70" height="30" as="geometry" />
        </mxCell>
        <mxCell id="J7_f9UvJToc5HEitAdjO-124" value="Source" style="ellipse;whiteSpace=wrap;html=1;" parent="1" vertex="1">
          <mxGeometry x="1030" y="425" width="70" height="30" as="geometry" />
        </mxCell>
        <mxCell id="J7_f9UvJToc5HEitAdjO-127" value="" style="endArrow=none;html=1;rounded=0;entryX=0.25;entryY=0;entryDx=0;entryDy=0;exitX=0.5;exitY=1;exitDx=0;exitDy=0;" parent="1" source="J7_f9UvJToc5HEitAdjO-117" target="J7_f9UvJToc5HEitAdjO-116" edge="1">
          <mxGeometry width="50" height="50" relative="1" as="geometry">
            <mxPoint x="870" y="490" as="sourcePoint" />
            <mxPoint x="920" y="440" as="targetPoint" />
          </mxGeometry>
        </mxCell>
        <mxCell id="J7_f9UvJToc5HEitAdjO-128" value="" style="endArrow=none;html=1;rounded=0;entryX=0;entryY=0.25;entryDx=0;entryDy=0;" parent="1" source="J7_f9UvJToc5HEitAdjO-118" target="J7_f9UvJToc5HEitAdjO-116" edge="1">
          <mxGeometry width="50" height="50" relative="1" as="geometry">
            <mxPoint x="870" y="470" as="sourcePoint" />
            <mxPoint x="920" y="420" as="targetPoint" />
          </mxGeometry>
        </mxCell>
        <mxCell id="J7_f9UvJToc5HEitAdjO-129" value="" style="endArrow=none;html=1;rounded=0;entryX=0;entryY=0.5;entryDx=0;entryDy=0;exitX=1;exitY=0.5;exitDx=0;exitDy=0;" parent="1" source="J7_f9UvJToc5HEitAdjO-119" target="J7_f9UvJToc5HEitAdjO-116" edge="1">
          <mxGeometry width="50" height="50" relative="1" as="geometry">
            <mxPoint x="870" y="470" as="sourcePoint" />
            <mxPoint x="920" y="420" as="targetPoint" />
          </mxGeometry>
        </mxCell>
        <mxCell id="J7_f9UvJToc5HEitAdjO-130" value="" style="endArrow=none;html=1;rounded=0;entryX=0.5;entryY=0;entryDx=0;entryDy=0;exitX=0.25;exitY=1;exitDx=0;exitDy=0;" parent="1" source="J7_f9UvJToc5HEitAdjO-116" target="J7_f9UvJToc5HEitAdjO-120" edge="1">
          <mxGeometry width="50" height="50" relative="1" as="geometry">
            <mxPoint x="870" y="470" as="sourcePoint" />
            <mxPoint x="920" y="420" as="targetPoint" />
          </mxGeometry>
        </mxCell>
        <mxCell id="J7_f9UvJToc5HEitAdjO-131" value="" style="endArrow=none;html=1;rounded=0;entryX=0.5;entryY=0;entryDx=0;entryDy=0;exitX=0.75;exitY=1;exitDx=0;exitDy=0;" parent="1" source="J7_f9UvJToc5HEitAdjO-116" target="J7_f9UvJToc5HEitAdjO-124" edge="1">
          <mxGeometry width="50" height="50" relative="1" as="geometry">
            <mxPoint x="870" y="470" as="sourcePoint" />
            <mxPoint x="920" y="420" as="targetPoint" />
          </mxGeometry>
        </mxCell>
        <mxCell id="J7_f9UvJToc5HEitAdjO-132" value="" style="endArrow=none;html=1;rounded=0;entryX=0.5;entryY=1;entryDx=0;entryDy=0;exitX=0.653;exitY=0.021;exitDx=0;exitDy=0;exitPerimeter=0;" parent="1" source="J7_f9UvJToc5HEitAdjO-116" target="J7_f9UvJToc5HEitAdjO-122" edge="1">
          <mxGeometry width="50" height="50" relative="1" as="geometry">
            <mxPoint x="900" y="430" as="sourcePoint" />
            <mxPoint x="950" y="380" as="targetPoint" />
          </mxGeometry>
        </mxCell>
        <mxCell id="J7_f9UvJToc5HEitAdjO-133" value="" style="endArrow=none;html=1;rounded=0;entryX=0;entryY=0.5;entryDx=0;entryDy=0;" parent="1" target="J7_f9UvJToc5HEitAdjO-123" edge="1">
          <mxGeometry width="50" height="50" relative="1" as="geometry">
            <mxPoint x="1060" y="360" as="sourcePoint" />
            <mxPoint x="950" y="380" as="targetPoint" />
          </mxGeometry>
        </mxCell>
        <mxCell id="J7_f9UvJToc5HEitAdjO-135" value="carries" style="rhombus;whiteSpace=wrap;html=1;" parent="1" vertex="1">
          <mxGeometry x="960" y="480" width="80" height="80" as="geometry" />
        </mxCell>
        <mxCell id="J7_f9UvJToc5HEitAdjO-137" value="PASSENGER" style="rounded=0;whiteSpace=wrap;html=1;" parent="1" vertex="1">
          <mxGeometry x="940" y="640" width="120" height="40" as="geometry" />
        </mxCell>
        <mxCell id="J7_f9UvJToc5HEitAdjO-138" value="&lt;u&gt;PassportNo&lt;/u&gt;" style="ellipse;whiteSpace=wrap;html=1;" parent="1" vertex="1">
          <mxGeometry x="1030" y="570" width="80" height="30" as="geometry" />
        </mxCell>
        <mxCell id="J7_f9UvJToc5HEitAdjO-139" value="Name" style="ellipse;whiteSpace=wrap;html=1;" parent="1" vertex="1">
          <mxGeometry x="910" y="710" width="70" height="30" as="geometry" />
        </mxCell>
        <mxCell id="J7_f9UvJToc5HEitAdjO-140" value="Sex" style="ellipse;whiteSpace=wrap;html=1;" parent="1" vertex="1">
          <mxGeometry x="850" y="610" width="70" height="30" as="geometry" />
        </mxCell>
        <mxCell id="J7_f9UvJToc5HEitAdjO-141" value="Age" style="ellipse;whiteSpace=wrap;html=1;" parent="1" vertex="1">
          <mxGeometry x="900" y="570" width="70" height="30" as="geometry" />
        </mxCell>
        <mxCell id="J7_f9UvJToc5HEitAdjO-142" value="&lt;u&gt;PID&lt;/u&gt;" style="ellipse;whiteSpace=wrap;html=1;" parent="1" vertex="1">
          <mxGeometry x="1080" y="610" width="70" height="30" as="geometry" />
        </mxCell>
        <mxCell id="J7_f9UvJToc5HEitAdjO-143" value="Fname" style="ellipse;whiteSpace=wrap;html=1;" parent="1" vertex="1">
          <mxGeometry x="810" y="710" width="70" height="30" as="geometry" />
        </mxCell>
        <mxCell id="J7_f9UvJToc5HEitAdjO-144" value="Lname" style="ellipse;whiteSpace=wrap;html=1;" parent="1" vertex="1">
          <mxGeometry x="850" y="760" width="70" height="30" as="geometry" />
        </mxCell>
        <mxCell id="J7_f9UvJToc5HEitAdjO-145" value="Phone_No" style="ellipse;whiteSpace=wrap;html=1;" parent="1" vertex="1">
          <mxGeometry x="1100" y="680" width="70" height="30" as="geometry" />
        </mxCell>
        <mxCell id="J7_f9UvJToc5HEitAdjO-146" value="Address" style="ellipse;whiteSpace=wrap;html=1;" parent="1" vertex="1">
          <mxGeometry x="1020" y="710" width="70" height="30" as="geometry" />
        </mxCell>
        <mxCell id="J7_f9UvJToc5HEitAdjO-147" value="" style="endArrow=none;html=1;rounded=0;entryX=0.25;entryY=0;entryDx=0;entryDy=0;exitX=0.5;exitY=1;exitDx=0;exitDy=0;" parent="1" source="J7_f9UvJToc5HEitAdjO-141" target="J7_f9UvJToc5HEitAdjO-137" edge="1">
          <mxGeometry width="50" height="50" relative="1" as="geometry">
            <mxPoint x="920" y="630" as="sourcePoint" />
            <mxPoint x="970" y="580" as="targetPoint" />
          </mxGeometry>
        </mxCell>
        <mxCell id="J7_f9UvJToc5HEitAdjO-148" value="" style="endArrow=none;html=1;rounded=0;entryX=0;entryY=0.25;entryDx=0;entryDy=0;exitX=1;exitY=1;exitDx=0;exitDy=0;" parent="1" source="J7_f9UvJToc5HEitAdjO-140" target="J7_f9UvJToc5HEitAdjO-137" edge="1">
          <mxGeometry width="50" height="50" relative="1" as="geometry">
            <mxPoint x="920" y="630" as="sourcePoint" />
            <mxPoint x="970" y="580" as="targetPoint" />
          </mxGeometry>
        </mxCell>
        <mxCell id="J7_f9UvJToc5HEitAdjO-149" value="" style="endArrow=none;html=1;rounded=0;entryX=0.5;entryY=1;entryDx=0;entryDy=0;exitX=0.75;exitY=0;exitDx=0;exitDy=0;" parent="1" source="J7_f9UvJToc5HEitAdjO-137" target="J7_f9UvJToc5HEitAdjO-138" edge="1">
          <mxGeometry width="50" height="50" relative="1" as="geometry">
            <mxPoint x="1000" y="660" as="sourcePoint" />
            <mxPoint x="1050" y="610" as="targetPoint" />
          </mxGeometry>
        </mxCell>
        <mxCell id="J7_f9UvJToc5HEitAdjO-150" value="" style="endArrow=none;html=1;rounded=0;entryX=0.5;entryY=1;entryDx=0;entryDy=0;exitX=1;exitY=0.25;exitDx=0;exitDy=0;" parent="1" source="J7_f9UvJToc5HEitAdjO-137" target="J7_f9UvJToc5HEitAdjO-142" edge="1">
          <mxGeometry width="50" height="50" relative="1" as="geometry">
            <mxPoint x="1030" y="670" as="sourcePoint" />
            <mxPoint x="1080" y="620" as="targetPoint" />
          </mxGeometry>
        </mxCell>
        <mxCell id="J7_f9UvJToc5HEitAdjO-151" value="" style="endArrow=none;html=1;rounded=0;exitX=1;exitY=0.75;exitDx=0;exitDy=0;entryX=0;entryY=0.5;entryDx=0;entryDy=0;" parent="1" source="J7_f9UvJToc5HEitAdjO-137" target="J7_f9UvJToc5HEitAdjO-156" edge="1">
          <mxGeometry width="50" height="50" relative="1" as="geometry">
            <mxPoint x="1030" y="670" as="sourcePoint" />
            <mxPoint x="1080" y="695" as="targetPoint" />
          </mxGeometry>
        </mxCell>
        <mxCell id="J7_f9UvJToc5HEitAdjO-152" value="" style="endArrow=none;html=1;rounded=0;entryX=0.5;entryY=0;entryDx=0;entryDy=0;exitX=0.75;exitY=1;exitDx=0;exitDy=0;" parent="1" source="J7_f9UvJToc5HEitAdjO-137" target="J7_f9UvJToc5HEitAdjO-146" edge="1">
          <mxGeometry width="50" height="50" relative="1" as="geometry">
            <mxPoint x="1030" y="670" as="sourcePoint" />
            <mxPoint x="1080" y="620" as="targetPoint" />
          </mxGeometry>
        </mxCell>
        <mxCell id="J7_f9UvJToc5HEitAdjO-153" value="" style="endArrow=none;html=1;rounded=0;exitX=0.5;exitY=0;exitDx=0;exitDy=0;entryX=0.25;entryY=1;entryDx=0;entryDy=0;" parent="1" source="J7_f9UvJToc5HEitAdjO-139" target="J7_f9UvJToc5HEitAdjO-137" edge="1">
          <mxGeometry width="50" height="50" relative="1" as="geometry">
            <mxPoint x="960" y="680" as="sourcePoint" />
            <mxPoint x="980" y="690" as="targetPoint" />
          </mxGeometry>
        </mxCell>
        <mxCell id="J7_f9UvJToc5HEitAdjO-154" value="" style="endArrow=none;html=1;rounded=0;entryX=0;entryY=0.5;entryDx=0;entryDy=0;exitX=1;exitY=0.5;exitDx=0;exitDy=0;" parent="1" source="J7_f9UvJToc5HEitAdjO-143" target="J7_f9UvJToc5HEitAdjO-139" edge="1">
          <mxGeometry width="50" height="50" relative="1" as="geometry">
            <mxPoint x="900" y="700" as="sourcePoint" />
            <mxPoint x="950" y="650" as="targetPoint" />
          </mxGeometry>
        </mxCell>
        <mxCell id="J7_f9UvJToc5HEitAdjO-155" value="" style="endArrow=none;html=1;rounded=0;entryX=0;entryY=0.5;entryDx=0;entryDy=0;exitX=0.5;exitY=0;exitDx=0;exitDy=0;" parent="1" source="J7_f9UvJToc5HEitAdjO-144" target="J7_f9UvJToc5HEitAdjO-139" edge="1">
          <mxGeometry width="50" height="50" relative="1" as="geometry">
            <mxPoint x="900" y="700" as="sourcePoint" />
            <mxPoint x="950" y="650" as="targetPoint" />
          </mxGeometry>
        </mxCell>
        <mxCell id="J7_f9UvJToc5HEitAdjO-157" value="" style="endArrow=none;html=1;rounded=0;exitX=1;exitY=0.5;exitDx=0;exitDy=0;entryX=0;entryY=0.5;entryDx=0;entryDy=0;" parent="1" source="J7_f9UvJToc5HEitAdjO-137" target="J7_f9UvJToc5HEitAdjO-176" edge="1">
          <mxGeometry width="50" height="50" relative="1" as="geometry">
            <mxPoint x="1200" y="680" as="sourcePoint" />
            <mxPoint x="1200" y="660" as="targetPoint" />
          </mxGeometry>
        </mxCell>
        <mxCell id="J7_f9UvJToc5HEitAdjO-159" value="d" style="ellipse;whiteSpace=wrap;html=1;aspect=fixed;" parent="1" vertex="1">
          <mxGeometry x="1260" y="365" width="30" height="30" as="geometry" />
        </mxCell>
        <mxCell id="J7_f9UvJToc5HEitAdjO-161" value="" style="verticalLabelPosition=bottom;verticalAlign=top;html=1;shape=mxgraph.basic.arc;startAngle=0.44141016803936806;endAngle=0.06463251336126931;rotation=-225;" parent="1" vertex="1">
          <mxGeometry x="1290" y="325" width="50" height="20" as="geometry" />
        </mxCell>
        <mxCell id="J7_f9UvJToc5HEitAdjO-163" value="CONNECTING" style="rounded=0;whiteSpace=wrap;html=1;" parent="1" vertex="1">
          <mxGeometry x="1320" y="240" width="120" height="40" as="geometry" />
        </mxCell>
        <mxCell id="J7_f9UvJToc5HEitAdjO-164" value="" style="endArrow=none;html=1;rounded=0;exitX=1;exitY=0;exitDx=0;exitDy=0;entryX=0.32;entryY=1.071;entryDx=0;entryDy=0;entryPerimeter=0;" parent="1" source="J7_f9UvJToc5HEitAdjO-159" target="J7_f9UvJToc5HEitAdjO-163" edge="1">
          <mxGeometry width="50" height="50" relative="1" as="geometry">
            <mxPoint x="1300" y="350" as="sourcePoint" />
            <mxPoint x="1370" y="310" as="targetPoint" />
          </mxGeometry>
        </mxCell>
        <mxCell id="J7_f9UvJToc5HEitAdjO-166" value="NONSTOP" style="rounded=0;whiteSpace=wrap;html=1;" parent="1" vertex="1">
          <mxGeometry x="1320" y="440" width="120" height="40" as="geometry" />
        </mxCell>
        <mxCell id="J7_f9UvJToc5HEitAdjO-167" value="" style="endArrow=none;html=1;rounded=0;exitX=1;exitY=1;exitDx=0;exitDy=0;entryX=0.25;entryY=0;entryDx=0;entryDy=0;" parent="1" source="J7_f9UvJToc5HEitAdjO-159" target="J7_f9UvJToc5HEitAdjO-166" edge="1">
          <mxGeometry width="50" height="50" relative="1" as="geometry">
            <mxPoint x="1296" y="379" as="sourcePoint" />
            <mxPoint x="1371" y="293" as="targetPoint" />
          </mxGeometry>
        </mxCell>
        <mxCell id="J7_f9UvJToc5HEitAdjO-168" value="" style="verticalLabelPosition=bottom;verticalAlign=top;html=1;shape=mxgraph.basic.arc;startAngle=0.44141016803936806;endAngle=0.06463251336126931;rotation=-150;" parent="1" vertex="1">
          <mxGeometry x="1280" y="400" width="50" height="20" as="geometry" />
        </mxCell>
        <mxCell id="J7_f9UvJToc5HEitAdjO-171" value="" style="endArrow=none;html=1;rounded=0;exitX=0.5;exitY=0;exitDx=0;exitDy=0;entryX=0.5;entryY=1;entryDx=0;entryDy=0;" parent="1" source="J7_f9UvJToc5HEitAdjO-163" target="J7_f9UvJToc5HEitAdjO-173" edge="1">
          <mxGeometry width="50" height="50" relative="1" as="geometry">
            <mxPoint x="1390" y="230" as="sourcePoint" />
            <mxPoint x="1380" y="210" as="targetPoint" />
          </mxGeometry>
        </mxCell>
        <mxCell id="J7_f9UvJToc5HEitAdjO-172" value="No_of_stops" style="ellipse;whiteSpace=wrap;html=1;" parent="1" vertex="1">
          <mxGeometry x="1440" y="180" width="90" height="30" as="geometry" />
        </mxCell>
        <mxCell id="J7_f9UvJToc5HEitAdjO-173" value="Layover_time" style="ellipse;whiteSpace=wrap;html=1;" parent="1" vertex="1">
          <mxGeometry x="1335" y="170" width="90" height="30" as="geometry" />
        </mxCell>
        <mxCell id="J7_f9UvJToc5HEitAdjO-174" value="" style="endArrow=none;html=1;rounded=0;entryX=0.5;entryY=1;entryDx=0;entryDy=0;exitX=0.673;exitY=-0.047;exitDx=0;exitDy=0;exitPerimeter=0;" parent="1" source="J7_f9UvJToc5HEitAdjO-163" target="J7_f9UvJToc5HEitAdjO-172" edge="1">
          <mxGeometry width="50" height="50" relative="1" as="geometry">
            <mxPoint x="1390" y="250" as="sourcePoint" />
            <mxPoint x="1440" y="200" as="targetPoint" />
          </mxGeometry>
        </mxCell>
        <mxCell id="J7_f9UvJToc5HEitAdjO-175" value="cancels" style="rhombus;whiteSpace=wrap;html=1;" parent="1" vertex="1">
          <mxGeometry x="1240" y="760" width="80" height="80" as="geometry" />
        </mxCell>
        <mxCell id="J7_f9UvJToc5HEitAdjO-176" value="books" style="rhombus;whiteSpace=wrap;html=1;" parent="1" vertex="1">
          <mxGeometry x="1240" y="620" width="80" height="80" as="geometry" />
        </mxCell>
        <mxCell id="J7_f9UvJToc5HEitAdjO-177" value="" style="endArrow=none;html=1;rounded=0;entryX=0.5;entryY=1;entryDx=0;entryDy=0;" parent="1" target="J7_f9UvJToc5HEitAdjO-137" edge="1">
          <mxGeometry width="50" height="50" relative="1" as="geometry">
            <mxPoint x="1000" y="800" as="sourcePoint" />
            <mxPoint x="1020" y="760" as="targetPoint" />
          </mxGeometry>
        </mxCell>
        <mxCell id="J7_f9UvJToc5HEitAdjO-178" value="" style="endArrow=none;html=1;rounded=0;entryX=0;entryY=0.5;entryDx=0;entryDy=0;" parent="1" target="J7_f9UvJToc5HEitAdjO-175" edge="1">
          <mxGeometry width="50" height="50" relative="1" as="geometry">
            <mxPoint x="1000" y="800" as="sourcePoint" />
            <mxPoint x="1150" y="780" as="targetPoint" />
          </mxGeometry>
        </mxCell>
        <mxCell id="J7_f9UvJToc5HEitAdjO-179" value="Date_of_booking" style="ellipse;whiteSpace=wrap;html=1;" parent="1" vertex="1">
          <mxGeometry x="1222.5" y="550" width="115" height="30" as="geometry" />
        </mxCell>
        <mxCell id="J7_f9UvJToc5HEitAdjO-180" value="" style="endArrow=none;html=1;rounded=0;entryX=0.5;entryY=1;entryDx=0;entryDy=0;exitX=0.5;exitY=0;exitDx=0;exitDy=0;" parent="1" source="J7_f9UvJToc5HEitAdjO-176" target="J7_f9UvJToc5HEitAdjO-179" edge="1">
          <mxGeometry width="50" height="50" relative="1" as="geometry">
            <mxPoint x="1340" y="640" as="sourcePoint" />
            <mxPoint x="1390" y="590" as="targetPoint" />
          </mxGeometry>
        </mxCell>
        <mxCell id="J7_f9UvJToc5HEitAdjO-182" value="" style="endArrow=none;html=1;rounded=0;exitX=1;exitY=0.5;exitDx=0;exitDy=0;" parent="1" source="J7_f9UvJToc5HEitAdjO-175" edge="1">
          <mxGeometry width="50" height="50" relative="1" as="geometry">
            <mxPoint x="1340" y="810" as="sourcePoint" />
            <mxPoint x="1500" y="800" as="targetPoint" />
          </mxGeometry>
        </mxCell>
        <mxCell id="J7_f9UvJToc5HEitAdjO-184" value="TICKET" style="rounded=0;whiteSpace=wrap;html=1;" parent="1" vertex="1">
          <mxGeometry x="1440" y="640" width="120" height="40" as="geometry" />
        </mxCell>
        <mxCell id="J7_f9UvJToc5HEitAdjO-185" value="" style="endArrow=none;html=1;rounded=0;entryX=0.5;entryY=1;entryDx=0;entryDy=0;" parent="1" target="J7_f9UvJToc5HEitAdjO-184" edge="1">
          <mxGeometry width="50" height="50" relative="1" as="geometry">
            <mxPoint x="1500" y="800" as="sourcePoint" />
            <mxPoint x="1500" y="610" as="targetPoint" />
          </mxGeometry>
        </mxCell>
        <mxCell id="J7_f9UvJToc5HEitAdjO-186" value="surcharge" style="ellipse;whiteSpace=wrap;html=1;" parent="1" vertex="1">
          <mxGeometry x="1320" y="740" width="70" height="30" as="geometry" />
        </mxCell>
        <mxCell id="J7_f9UvJToc5HEitAdjO-187" value="date of cancellation" style="ellipse;whiteSpace=wrap;html=1;" parent="1" vertex="1">
          <mxGeometry x="1130" y="740" width="115" height="30" as="geometry" />
        </mxCell>
        <mxCell id="J7_f9UvJToc5HEitAdjO-188" value="" style="endArrow=none;html=1;rounded=0;exitX=1;exitY=0;exitDx=0;exitDy=0;entryX=0.5;entryY=1;entryDx=0;entryDy=0;" parent="1" source="J7_f9UvJToc5HEitAdjO-175" target="J7_f9UvJToc5HEitAdjO-186" edge="1">
          <mxGeometry width="50" height="50" relative="1" as="geometry">
            <mxPoint x="1337.5" y="790" as="sourcePoint" />
            <mxPoint x="1387.5" y="740" as="targetPoint" />
          </mxGeometry>
        </mxCell>
        <mxCell id="J7_f9UvJToc5HEitAdjO-189" value="" style="endArrow=none;html=1;rounded=0;exitX=0;exitY=0;exitDx=0;exitDy=0;entryX=0.5;entryY=1;entryDx=0;entryDy=0;" parent="1" source="J7_f9UvJToc5HEitAdjO-175" target="J7_f9UvJToc5HEitAdjO-187" edge="1">
          <mxGeometry width="50" height="50" relative="1" as="geometry">
            <mxPoint x="1240" y="810" as="sourcePoint" />
            <mxPoint x="1290" y="760" as="targetPoint" />
          </mxGeometry>
        </mxCell>
        <mxCell id="J7_f9UvJToc5HEitAdjO-190" value="" style="endArrow=none;html=1;rounded=0;entryX=0.5;entryY=1;entryDx=0;entryDy=0;" parent="1" target="J7_f9UvJToc5HEitAdjO-197" edge="1">
          <mxGeometry width="50" height="50" relative="1" as="geometry">
            <mxPoint x="1480" y="640" as="sourcePoint" />
            <mxPoint x="1530" y="590" as="targetPoint" />
          </mxGeometry>
        </mxCell>
        <mxCell id="J7_f9UvJToc5HEitAdjO-191" value="Date_of_travel" style="ellipse;whiteSpace=wrap;html=1;" parent="1" vertex="1">
          <mxGeometry x="1510" y="730" width="90" height="30" as="geometry" />
        </mxCell>
        <mxCell id="J7_f9UvJToc5HEitAdjO-192" value="SeatNo" style="ellipse;whiteSpace=wrap;html=1;" parent="1" vertex="1">
          <mxGeometry x="1600" y="710" width="70" height="30" as="geometry" />
        </mxCell>
        <mxCell id="J7_f9UvJToc5HEitAdjO-193" value="Class" style="ellipse;whiteSpace=wrap;html=1;" parent="1" vertex="1">
          <mxGeometry x="1615" y="660" width="70" height="30" as="geometry" />
        </mxCell>
        <mxCell id="J7_f9UvJToc5HEitAdjO-194" value="Destination" style="ellipse;whiteSpace=wrap;html=1;" parent="1" vertex="1">
          <mxGeometry x="1615" y="610" width="70" height="30" as="geometry" />
        </mxCell>
        <mxCell id="J7_f9UvJToc5HEitAdjO-195" value="Source" style="ellipse;whiteSpace=wrap;html=1;" parent="1" vertex="1">
          <mxGeometry x="1570" y="570" width="70" height="30" as="geometry" />
        </mxCell>
        <mxCell id="J7_f9UvJToc5HEitAdjO-196" value="Price" style="ellipse;whiteSpace=wrap;html=1;" parent="1" vertex="1">
          <mxGeometry x="1480" y="570" width="70" height="30" as="geometry" />
        </mxCell>
        <mxCell id="J7_f9UvJToc5HEitAdjO-197" value="&lt;u&gt;Ticket Number&lt;/u&gt;" style="ellipse;whiteSpace=wrap;html=1;" parent="1" vertex="1">
          <mxGeometry x="1370" y="580" width="100" height="30" as="geometry" />
        </mxCell>
        <mxCell id="J7_f9UvJToc5HEitAdjO-199" value="" style="endArrow=none;html=1;rounded=0;entryX=0.5;entryY=0;entryDx=0;entryDy=0;exitX=0.5;exitY=1;exitDx=0;exitDy=0;" parent="1" source="J7_f9UvJToc5HEitAdjO-196" target="J7_f9UvJToc5HEitAdjO-184" edge="1">
          <mxGeometry width="50" height="50" relative="1" as="geometry">
            <mxPoint x="1460" y="750" as="sourcePoint" />
            <mxPoint x="1510" y="700" as="targetPoint" />
          </mxGeometry>
        </mxCell>
        <mxCell id="J7_f9UvJToc5HEitAdjO-200" value="" style="endArrow=none;html=1;rounded=0;entryX=0.5;entryY=1;entryDx=0;entryDy=0;exitX=0.75;exitY=0;exitDx=0;exitDy=0;" parent="1" source="J7_f9UvJToc5HEitAdjO-184" target="J7_f9UvJToc5HEitAdjO-195" edge="1">
          <mxGeometry width="50" height="50" relative="1" as="geometry">
            <mxPoint x="1510" y="750" as="sourcePoint" />
            <mxPoint x="1560" y="700" as="targetPoint" />
          </mxGeometry>
        </mxCell>
        <mxCell id="J7_f9UvJToc5HEitAdjO-201" value="" style="endArrow=none;html=1;rounded=0;entryX=0;entryY=0.5;entryDx=0;entryDy=0;exitX=1;exitY=0.25;exitDx=0;exitDy=0;" parent="1" source="J7_f9UvJToc5HEitAdjO-184" target="J7_f9UvJToc5HEitAdjO-194" edge="1">
          <mxGeometry width="50" height="50" relative="1" as="geometry">
            <mxPoint x="1580" y="650" as="sourcePoint" />
            <mxPoint x="1610" y="700" as="targetPoint" />
          </mxGeometry>
        </mxCell>
        <mxCell id="J7_f9UvJToc5HEitAdjO-202" value="" style="endArrow=none;html=1;rounded=0;entryX=0;entryY=0.5;entryDx=0;entryDy=0;exitX=1;exitY=0.5;exitDx=0;exitDy=0;" parent="1" source="J7_f9UvJToc5HEitAdjO-184" target="J7_f9UvJToc5HEitAdjO-193" edge="1">
          <mxGeometry width="50" height="50" relative="1" as="geometry">
            <mxPoint x="1590" y="660" as="sourcePoint" />
            <mxPoint x="1610" y="700" as="targetPoint" />
          </mxGeometry>
        </mxCell>
        <mxCell id="J7_f9UvJToc5HEitAdjO-203" value="" style="endArrow=none;html=1;rounded=0;entryX=0;entryY=0;entryDx=0;entryDy=0;exitX=1;exitY=0.75;exitDx=0;exitDy=0;" parent="1" source="J7_f9UvJToc5HEitAdjO-184" target="J7_f9UvJToc5HEitAdjO-192" edge="1">
          <mxGeometry width="50" height="50" relative="1" as="geometry">
            <mxPoint x="1570" y="700" as="sourcePoint" />
            <mxPoint x="1610" y="700" as="targetPoint" />
          </mxGeometry>
        </mxCell>
        <mxCell id="J7_f9UvJToc5HEitAdjO-204" value="" style="endArrow=none;html=1;rounded=0;exitX=0.5;exitY=0;exitDx=0;exitDy=0;entryX=0.75;entryY=1;entryDx=0;entryDy=0;" parent="1" source="J7_f9UvJToc5HEitAdjO-191" target="J7_f9UvJToc5HEitAdjO-184" edge="1">
          <mxGeometry width="50" height="50" relative="1" as="geometry">
            <mxPoint x="1510" y="740" as="sourcePoint" />
            <mxPoint x="1560" y="690" as="targetPoint" />
          </mxGeometry>
        </mxCell>
        <mxCell id="J7_f9UvJToc5HEitAdjO-209" value="" style="endArrow=none;html=1;rounded=0;exitX=1;exitY=0.5;exitDx=0;exitDy=0;entryX=0;entryY=0.5;entryDx=0;entryDy=0;" parent="1" source="WPUgw3aDF1IEapU8jd4O-1" target="J7_f9UvJToc5HEitAdjO-19" edge="1">
          <mxGeometry relative="1" as="geometry">
            <mxPoint x="120" y="160" as="sourcePoint" />
            <mxPoint x="280" y="160" as="targetPoint" />
          </mxGeometry>
        </mxCell>
        <mxCell id="J7_f9UvJToc5HEitAdjO-210" value="1" style="resizable=0;html=1;whiteSpace=wrap;align=right;verticalAlign=bottom;" parent="J7_f9UvJToc5HEitAdjO-209" connectable="0" vertex="1">
          <mxGeometry x="1" relative="1" as="geometry">
            <mxPoint x="-111" as="offset" />
          </mxGeometry>
        </mxCell>
        <mxCell id="J7_f9UvJToc5HEitAdjO-213" value="1" style="resizable=0;html=1;whiteSpace=wrap;align=right;verticalAlign=bottom;" parent="J7_f9UvJToc5HEitAdjO-209" connectable="0" vertex="1">
          <mxGeometry x="1" relative="1" as="geometry">
            <mxPoint x="149" as="offset" />
          </mxGeometry>
        </mxCell>
        <mxCell id="J7_f9UvJToc5HEitAdjO-214" value="m" style="resizable=0;html=1;whiteSpace=wrap;align=right;verticalAlign=bottom;" parent="J7_f9UvJToc5HEitAdjO-209" connectable="0" vertex="1">
          <mxGeometry x="1" relative="1" as="geometry">
            <mxPoint x="389" as="offset" />
          </mxGeometry>
        </mxCell>
        <mxCell id="J7_f9UvJToc5HEitAdjO-215" value="1" style="resizable=0;html=1;whiteSpace=wrap;align=right;verticalAlign=bottom;" parent="J7_f9UvJToc5HEitAdjO-209" connectable="0" vertex="1">
          <mxGeometry x="1" relative="1" as="geometry">
            <mxPoint x="239" y="80" as="offset" />
          </mxGeometry>
        </mxCell>
        <mxCell id="J7_f9UvJToc5HEitAdjO-216" value="n" style="resizable=0;html=1;whiteSpace=wrap;align=right;verticalAlign=bottom;" parent="J7_f9UvJToc5HEitAdjO-209" connectable="0" vertex="1">
          <mxGeometry x="1" relative="1" as="geometry">
            <mxPoint x="239" y="200" as="offset" />
          </mxGeometry>
        </mxCell>
        <mxCell id="J7_f9UvJToc5HEitAdjO-217" value="m" style="resizable=0;html=1;whiteSpace=wrap;align=right;verticalAlign=bottom;" parent="J7_f9UvJToc5HEitAdjO-209" connectable="0" vertex="1">
          <mxGeometry x="1" relative="1" as="geometry">
            <mxPoint x="429" y="280" as="offset" />
          </mxGeometry>
        </mxCell>
        <mxCell id="J7_f9UvJToc5HEitAdjO-218" value="n" style="resizable=0;html=1;whiteSpace=wrap;align=right;verticalAlign=bottom;" parent="J7_f9UvJToc5HEitAdjO-209" connectable="0" vertex="1">
          <mxGeometry x="1" relative="1" as="geometry">
            <mxPoint x="559" y="550" as="offset" />
          </mxGeometry>
        </mxCell>
        <mxCell id="J7_f9UvJToc5HEitAdjO-219" value="1" style="resizable=0;html=1;whiteSpace=wrap;align=right;verticalAlign=bottom;" parent="J7_f9UvJToc5HEitAdjO-209" connectable="0" vertex="1">
          <mxGeometry x="1" relative="1" as="geometry">
            <mxPoint x="909" y="560" as="offset" />
          </mxGeometry>
        </mxCell>
        <mxCell id="J7_f9UvJToc5HEitAdjO-220" value="n" style="resizable=0;html=1;whiteSpace=wrap;align=right;verticalAlign=bottom;" parent="J7_f9UvJToc5HEitAdjO-209" connectable="0" vertex="1">
          <mxGeometry x="1" relative="1" as="geometry">
            <mxPoint x="719" y="500" as="offset" />
          </mxGeometry>
        </mxCell>
        <mxCell id="J7_f9UvJToc5HEitAdjO-221" value="1" style="resizable=0;html=1;whiteSpace=wrap;align=right;verticalAlign=bottom;" parent="J7_f9UvJToc5HEitAdjO-209" connectable="0" vertex="1">
          <mxGeometry x="1" relative="1" as="geometry">
            <mxPoint x="839" y="700" as="offset" />
          </mxGeometry>
        </mxCell>
        <mxCell id="J7_f9UvJToc5HEitAdjO-222" value="n" style="resizable=0;html=1;whiteSpace=wrap;align=right;verticalAlign=bottom;" parent="J7_f9UvJToc5HEitAdjO-209" connectable="0" vertex="1">
          <mxGeometry x="1" relative="1" as="geometry">
            <mxPoint x="1149" y="700" as="offset" />
          </mxGeometry>
        </mxCell>
        <mxCell id="J7_f9UvJToc5HEitAdjO-223" value="n" style="resizable=0;html=1;whiteSpace=wrap;align=right;verticalAlign=bottom;" parent="J7_f9UvJToc5HEitAdjO-209" connectable="0" vertex="1">
          <mxGeometry x="1" relative="1" as="geometry">
            <mxPoint x="1109" y="560" as="offset" />
          </mxGeometry>
        </mxCell>
        <mxCell id="J7_f9UvJToc5HEitAdjO-224" value="1" style="resizable=0;html=1;whiteSpace=wrap;align=right;verticalAlign=bottom;" parent="J7_f9UvJToc5HEitAdjO-209" connectable="0" vertex="1">
          <mxGeometry x="1" relative="1" as="geometry">
            <mxPoint x="719" y="370" as="offset" />
          </mxGeometry>
        </mxCell>
        <mxCell id="J7_f9UvJToc5HEitAdjO-225" value="n" style="resizable=0;html=1;whiteSpace=wrap;align=right;verticalAlign=bottom;" parent="J7_f9UvJToc5HEitAdjO-209" connectable="0" vertex="1">
          <mxGeometry x="1" relative="1" as="geometry">
            <mxPoint x="719" y="220" as="offset" />
          </mxGeometry>
        </mxCell>
        <mxCell id="J7_f9UvJToc5HEitAdjO-226" value="1" style="resizable=0;html=1;whiteSpace=wrap;align=right;verticalAlign=bottom;" parent="J7_f9UvJToc5HEitAdjO-209" connectable="0" vertex="1">
          <mxGeometry x="1" relative="1" as="geometry">
            <mxPoint x="719" y="70" as="offset" />
          </mxGeometry>
        </mxCell>
        <mxCell id="J7_f9UvJToc5HEitAdjO-227" value="n" style="resizable=0;html=1;whiteSpace=wrap;align=right;verticalAlign=bottom;" parent="J7_f9UvJToc5HEitAdjO-209" connectable="0" vertex="1">
          <mxGeometry x="1" relative="1" as="geometry">
            <mxPoint x="559" as="offset" />
          </mxGeometry>
        </mxCell>
        <mxCell id="Rh-fdqRB8_b6ae01yUEd-1" value="" style="endArrow=none;html=1;rounded=0;entryX=1;entryY=0.5;entryDx=0;entryDy=0;exitX=0;exitY=0.5;exitDx=0;exitDy=0;" edge="1" parent="1" source="J7_f9UvJToc5HEitAdjO-22" target="J7_f9UvJToc5HEitAdjO-19">
          <mxGeometry width="50" height="50" relative="1" as="geometry">
            <mxPoint x="370" y="270" as="sourcePoint" />
            <mxPoint x="420" y="220" as="targetPoint" />
          </mxGeometry>
        </mxCell>
        <mxCell id="Rh-fdqRB8_b6ae01yUEd-2" value="" style="endArrow=none;html=1;rounded=0;entryX=0;entryY=0.5;entryDx=0;entryDy=0;exitX=1;exitY=0.5;exitDx=0;exitDy=0;" edge="1" parent="1" source="J7_f9UvJToc5HEitAdjO-31" target="J7_f9UvJToc5HEitAdjO-34">
          <mxGeometry width="50" height="50" relative="1" as="geometry">
            <mxPoint x="750" y="250" as="sourcePoint" />
            <mxPoint x="800" y="200" as="targetPoint" />
          </mxGeometry>
        </mxCell>
        <mxCell id="Rh-fdqRB8_b6ae01yUEd-3" value="" style="endArrow=none;html=1;rounded=0;entryX=0.5;entryY=1;entryDx=0;entryDy=0;exitX=0.5;exitY=0;exitDx=0;exitDy=0;" edge="1" parent="1" source="J7_f9UvJToc5HEitAdjO-42" target="J7_f9UvJToc5HEitAdjO-34">
          <mxGeometry width="50" height="50" relative="1" as="geometry">
            <mxPoint x="890" y="260" as="sourcePoint" />
            <mxPoint x="940" y="210" as="targetPoint" />
          </mxGeometry>
        </mxCell>
        <mxCell id="Rh-fdqRB8_b6ae01yUEd-4" value="" style="endArrow=none;html=1;rounded=0;entryX=0.5;entryY=1;entryDx=0;entryDy=0;exitX=0.5;exitY=0;exitDx=0;exitDy=0;" edge="1" parent="1" source="J7_f9UvJToc5HEitAdjO-116" target="J7_f9UvJToc5HEitAdjO-42">
          <mxGeometry width="50" height="50" relative="1" as="geometry">
            <mxPoint x="900" y="410" as="sourcePoint" />
            <mxPoint x="950" y="360" as="targetPoint" />
          </mxGeometry>
        </mxCell>
        <mxCell id="Rh-fdqRB8_b6ae01yUEd-5" value="" style="endArrow=none;html=1;rounded=0;entryX=0.5;entryY=1;entryDx=0;entryDy=0;exitX=0.5;exitY=0;exitDx=0;exitDy=0;" edge="1" parent="1" source="J7_f9UvJToc5HEitAdjO-135" target="J7_f9UvJToc5HEitAdjO-116">
          <mxGeometry width="50" height="50" relative="1" as="geometry">
            <mxPoint x="980" y="570" as="sourcePoint" />
            <mxPoint x="1030" y="520" as="targetPoint" />
          </mxGeometry>
        </mxCell>
        <mxCell id="Rh-fdqRB8_b6ae01yUEd-6" value="" style="endArrow=none;html=1;rounded=0;entryX=0.5;entryY=1;entryDx=0;entryDy=0;exitX=0.5;exitY=0;exitDx=0;exitDy=0;" edge="1" parent="1" source="J7_f9UvJToc5HEitAdjO-137" target="J7_f9UvJToc5HEitAdjO-135">
          <mxGeometry width="50" height="50" relative="1" as="geometry">
            <mxPoint x="980" y="640" as="sourcePoint" />
            <mxPoint x="1030" y="590" as="targetPoint" />
          </mxGeometry>
        </mxCell>
        <mxCell id="Rh-fdqRB8_b6ae01yUEd-7" value="" style="endArrow=none;html=1;rounded=0;entryX=0;entryY=0.5;entryDx=0;entryDy=0;exitX=1;exitY=0.5;exitDx=0;exitDy=0;" edge="1" parent="1" source="J7_f9UvJToc5HEitAdjO-176" target="J7_f9UvJToc5HEitAdjO-184">
          <mxGeometry width="50" height="50" relative="1" as="geometry">
            <mxPoint x="1280" y="720" as="sourcePoint" />
            <mxPoint x="1330" y="670" as="targetPoint" />
          </mxGeometry>
        </mxCell>
        <mxCell id="Rh-fdqRB8_b6ae01yUEd-8" value="" style="endArrow=none;html=1;rounded=0;entryX=0;entryY=0.5;entryDx=0;entryDy=0;exitX=1;exitY=0.5;exitDx=0;exitDy=0;" edge="1" parent="1" source="J7_f9UvJToc5HEitAdjO-116" target="J7_f9UvJToc5HEitAdjO-159">
          <mxGeometry width="50" height="50" relative="1" as="geometry">
            <mxPoint x="1150" y="410" as="sourcePoint" />
            <mxPoint x="1200" y="360" as="targetPoint" />
          </mxGeometry>
        </mxCell>
        <mxCell id="Rh-fdqRB8_b6ae01yUEd-9" value="" style="endArrow=none;html=1;rounded=0;entryX=0.5;entryY=1;entryDx=0;entryDy=0;exitX=0.5;exitY=0;exitDx=0;exitDy=0;" edge="1" parent="1" source="J7_f9UvJToc5HEitAdjO-82" target="J7_f9UvJToc5HEitAdjO-49">
          <mxGeometry width="50" height="50" relative="1" as="geometry">
            <mxPoint x="560" y="520" as="sourcePoint" />
            <mxPoint x="610" y="470" as="targetPoint" />
          </mxGeometry>
        </mxCell>
        <mxCell id="Rh-fdqRB8_b6ae01yUEd-10" value="" style="endArrow=none;html=1;rounded=0;entryX=0.5;entryY=1;entryDx=0;entryDy=0;exitX=0.5;exitY=0;exitDx=0;exitDy=0;" edge="1" parent="1" source="J7_f9UvJToc5HEitAdjO-46" target="J7_f9UvJToc5HEitAdjO-22">
          <mxGeometry width="50" height="50" relative="1" as="geometry">
            <mxPoint x="480" y="300" as="sourcePoint" />
            <mxPoint x="530" y="250" as="targetPoint" />
          </mxGeometry>
        </mxCell>
      </root>
    </mxGraphModel>
  </diagram>
</mxfile>
